<svg id="Layer_1" data-name="Layer 1" xmlns="http://www.w3.org/2000/svg" viewBox="0 0 512 512"><defs><style>.cls-1{fill:#f0f0f0}.cls-2{fill:#d80027}.cls-3{fill:#0052b4}</style></defs><title>America</title><circle class="cls-1" cx="256" cy="256" r="256"/><path class="cls-2" d="M244.87 256H512a256.18 256.18 0 0 0-8.82-66.78H244.87zm0-133.57h229.56a257.42 257.42 0 0 0-59.07-66.78H244.87zM256 512a254.9 254.9 0 0 0 159.36-55.65H96.64A254.9 254.9 0 0 0 256 512zM37.57 389.57h436.86a254.57 254.57 0 0 0 28.75-66.79H8.82a254.57 254.57 0 0 0 28.75 66.79z"/><path class="cls-3" d="M118.58 40h23.33l-21.7 15.76 8.29 25.51-21.7-15.78-21.7 15.76 7.16-22a257.83 257.83 0 0 0-49.65 55.34h7.48l-13.82 10Q33 130 30.08 135.53l6.6 20.3-12.31-8.94q-4.59 9.72-8.37 19.87l7.26 22.37h26.83l-21.7 15.76 8.29 25.51L15 214.64l-13 9.44A258.68 258.68 0 0 0 0 256h256V0a254.81 254.81 0 0 0-137.42 40zm9.92 190.4l-21.7-15.77-21.7 15.77 8.29-25.51-21.7-15.76h26.82l8.29-25.51 8.29 25.51h26.82l-21.7 15.76zm-8.29-100.08l8.29 25.51-21.7-15.77-21.7 15.77 8.29-25.51-21.7-15.77h26.83L106.8 89l8.29 25.51h26.82zM220.33 230.4l-21.7-15.77-21.7 15.77 8.29-25.51-21.7-15.76h26.82l8.29-25.51 8.29 25.51h26.82L212 204.89zM212 130.32l8.29 25.51-21.7-15.77-21.7 15.77 8.29-25.51-21.7-15.77h26.82L198.63 89l8.29 25.51h26.82zm0-74.58l8.29 25.51-21.7-15.76-21.7 15.76 8.29-25.51L163.52 40h26.82l8.29-25.51L206.92 40h26.82z"/></svg>