<svg id="Layer_1" data-name="Layer 1" xmlns="http://www.w3.org/2000/svg" viewBox="0 0 512 512"><defs><style>.cls-1{fill:#f0f0f0}.cls-2{fill:#d80027}</style></defs><title>Canada</title><circle class="cls-1" cx="256" cy="256" r="256"/><path class="cls-2" d="M512 256c0-101.49-59.07-189.19-144.7-230.6v461.2C452.93 445.19 512 357.49 512 256zM0 256c0 101.49 59.06 189.19 144.7 230.6V25.4C59.06 66.81 0 154.51 0 256zm300.52 33.39l44.52-22.26L322.78 256v-22.26L278.26 256l22.26-44.52h-22.26L256 178.09l-22.26 33.39h-22.26L233.74 256l-44.52-22.26V256l-22.26 11.13 44.52 22.26-11.13 22.26h44.52v33.39h22.26v-33.39h44.52l-11.13-22.26z"/></svg>