<svg id="Layer_1" data-name="Layer 1" xmlns="http://www.w3.org/2000/svg" viewBox="0 0 512 512"><defs><style>.cls-1{fill:#fff}.cls-2{fill:#41479b}.cls-3{fill:#f5f5f5}.cls-4{fill:#73af00}.cls-5{fill:#fab446}</style></defs><title>India</title><circle class="cls-1" cx="256" cy="256" r="256"/><path class="cls-1" d="M511.86 255.86a255.43 255.43 0 0 0-14.61-85.38H14.75a256.77 256.77 0 0 0 .1 171h482.3a255.48 255.48 0 0 0 14.71-85.62z"/><path class="cls-2" d="M256 314.45A58.45 58.45 0 1 1 314.45 256 58.52 58.52 0 0 1 256 314.45zm0-106A47.58 47.58 0 1 0 303.57 256 47.62 47.62 0 0 0 256 208.43z"/><circle class="cls-2" cx="256" cy="256" r="6.63"/><path class="cls-2" d="M256 257l-16.84 1.7-36.17-1.7v-1.99l36.17-1.7 16.84 1.7V257z"/><path class="cls-2" d="M256 257l16.84 1.7 36.17-1.7v-1.99l-36.17-1.7-16.84 1.7V257z"/><path class="cls-2" d="M255.01 256l-1.7-16.84 1.7-36.17h1.98l1.7 36.17-1.7 16.84h-1.98z"/><path class="cls-2" d="M255.01 256l-1.7 16.84 1.7 36.17h1.98l1.7-36.17-1.7-16.84h-1.98z"/><path class="cls-2" d="M255.3 256.71L242.19 246l-24.38-26.78 1.41-1.4L246 242.19l10.7 13.11-1.4 1.41z"/><path class="cls-2" d="M255.3 256.71l10.7 13.1 26.78 24.38 1.41-1.4L269.81 266l-13.11-10.7-1.4 1.41z"/><path class="cls-2" d="M255.3 255.3l10.7-13.11 26.78-24.37 1.41 1.4L269.81 246l-13.11 10.71-1.4-1.41zm0 0L242.19 266l-24.38 26.79 1.41 1.4L246 269.81l10.7-13.1-1.4-1.41z"/><path class="cls-2" d="M256.38 256.92l-14.91 8.02-34.07 12.27-.76-1.84 32.77-15.41 16.21-4.87.76 1.83z"/><path class="cls-2" d="M256.38 256.92l16.21-4.87 32.77-15.42-.76-1.83-34.07 12.27-14.91 8.02.76 1.83z"/><path class="cls-2" d="M255.08 256.38l-8.01-14.9-12.28-34.07 1.84-.76 15.41 32.76 4.88 16.21-1.84.76z"/><path class="cls-2" d="M255.08 256.38l4.87 16.21 15.42 32.77 1.83-.76-12.27-34.07-8.01-14.91-1.84.76z"/><path class="cls-2" d="M255.62 256.92l-16.21-4.87-32.77-15.42.76-1.83 34.07 12.27 14.91 8.02-.76 1.83zm0 0l14.91 8.02 34.07 12.27.76-1.84-32.77-15.41-16.21-4.87-.76 1.83z"/><path class="cls-2" d="M255.08 255.62l4.87-16.21 15.42-32.76 1.83.76-12.27 34.07-8.01 14.9-1.84-.76zm0 0l-8.01 14.91-12.28 34.07 1.84.76 15.41-32.77 4.88-16.21-1.84-.76z"/><circle class="cls-3" cx="256" cy="256" r="7.26"/><circle class="cls-2" cx="256" cy="256" r="5.36"/><path class="cls-4" d="M256 511.72c111.26 0 205.92-71 241.15-170.2H14.85C50.08 440.7 144.74 511.72 256 511.72z"/><path class="cls-5" d="M256 0C144.63 0 49.9 71.16 14.75 170.48h482.5C462.1 71.16 367.37 0 256 0z"/></svg>