<svg id="Layer_1" data-name="Layer 1" xmlns="http://www.w3.org/2000/svg" viewBox="0 0 28.7 6.4"><defs><style>.cls-1{fill:#fff}.cls-2{fill:#0068ff}.cls-2,.cls-4{opacity:.8}.cls-2,.cls-3,.cls-4,.cls-5{isolation:isolate}.cls-3{fill:#00b7d8}.cls-3,.cls-5{opacity:.9}.cls-4{fill:#ff0328}.cls-5{fill:#ff812c}</style></defs><title>Artboard 1</title><path class="cls-1" d="M10.99 2.14H8.41v.48h.97v2.71h.61V2.62h1.1l-.1-.48zm1.3.96a1.18 1.18 0 0 0-.5-.1 2 2 0 0 0-.42.06 1.3 1.3 0 0 0-.37.14l.16.51a1.69 1.69 0 0 1 .32-.11 1.42 1.42 0 0 1 .34 0 .36.36 0 0 1 .27.1.42.42 0 0 1 .1.27h-.45a1 1 0 0 0-.63.18.68.68 0 0 0-.23.54.72.72 0 0 0 .21.54.84.84 0 0 0 .61.2.83.83 0 0 0 .6-.3l.1.24h.4V3.84a.76.76 0 0 0-.13-.44 1.07 1.07 0 0 0-.38-.3zm-.12 1.58a.69.69 0 0 1-.5.22.31.31 0 0 1-.21-.07.25.25 0 0 1-.08-.18.32.32 0 0 1 .33-.32h.46zM14.66 3a1.23 1.23 0 0 0-.43.09 1.6 1.6 0 0 0-.45.23l-.1-.24h-.4v2.25h.61V3.76a2.29 2.29 0 0 1 .31-.2.6.6 0 0 1 .3-.07.29.29 0 0 1 .24.12.56.56 0 0 1 .08.32v1.4h.61V3.91a1.12 1.12 0 0 0-.17-.68.68.68 0 0 0-.6-.23zm2.93.26a1.35 1.35 0 0 0-.31-.19A.85.85 0 0 0 17 3a1.21 1.21 0 0 0-.62.15 1 1 0 0 0-.4.42 1.27 1.27 0 0 0-.14.63 1.2 1.2 0 0 0 .31.87 1.1 1.1 0 0 0 .83.32.89.89 0 0 0 .5-.15v.19a.41.41 0 0 1-.16.35.69.69 0 0 1-.45.14 1.33 1.33 0 0 1-.34 0 1.93 1.93 0 0 1-.39-.15l-.18.43a1.33 1.33 0 0 0 .46.18 2.08 2.08 0 0 0 .47.08 1.46 1.46 0 0 0 .88-.25.86.86 0 0 0 .33-.72V3.06h-.32zm-.16 1.42a1 1 0 0 1-.24.14.59.59 0 0 1-.23 0 .5.5 0 0 1-.4-.19.72.72 0 0 1-.14-.48.75.75 0 0 1 .14-.49.47.47 0 0 1 .4-.19.67.67 0 0 1 .24 0 .9.9 0 0 1 .23.15zm2.74-1.52a1 1 0 0 0-.58-.16 1.34 1.34 0 0 0-.61.14 1 1 0 0 0-.39.42 1.47 1.47 0 0 0-.14.64 1.12 1.12 0 0 0 .34.87 1.38 1.38 0 0 0 1 .32 1.42 1.42 0 0 0 .48-.08 1.22 1.22 0 0 0 .37-.2l-.18-.44a1.73 1.73 0 0 1-.32.14.9.9 0 0 1-.34.06.81.81 0 0 1-.48-.13.61.61 0 0 1-.2-.37h1.53v-.18a1.64 1.64 0 0 0-.11-.6.93.93 0 0 0-.37-.43zM19.1 4a.58.58 0 0 1 .17-.34.47.47 0 0 1 .31-.11.41.41 0 0 1 .31.11.6.6 0 0 1 .16.34zm3.28-1a1.22 1.22 0 0 0-.42.09 1.6 1.6 0 0 0-.45.23l-.11-.24H21v2.25h.61V3.76l.31-.2a.66.66 0 0 1 .3-.07.26.26 0 0 1 .24.12.49.49 0 0 1 .09.32v1.4h.61V3.91a1.2 1.2 0 0 0-.16-.68.69.69 0 0 0-.62-.23zm2.31 1.9a.28.28 0 0 1-.25-.11.44.44 0 0 1-.09-.29v-1H25l-.18-.47h-.42v-.61l-.6.1v.54h-.3v.47h.3V4.6a.79.79 0 0 0 .24.61 1 1 0 0 0 .66.21.77.77 0 0 0 .25 0 .51.51 0 0 0 .21-.1l-.17-.44a.61.61 0 0 1-.3.02zm.75-1.84h.61v2.27h-.61zm.3-1.01a.33.33 0 0 0-.24.1.35.35 0 0 0-.1.24.37.37 0 0 0 .1.25.36.36 0 0 0 .24.09.37.37 0 0 0 .26-.09.37.37 0 0 0 .1-.25.35.35 0 0 0-.1-.24.33.33 0 0 0-.26-.1zm2.55 1.35a1.07 1.07 0 0 0-.36-.3 1.1 1.1 0 0 0-.49-.1 2.07 2.07 0 0 0-.43.06 1.3 1.3 0 0 0-.39.14l.17.51a1.48 1.48 0 0 1 .32-.11 1.37 1.37 0 0 1 .34 0 .33.33 0 0 1 .26.1.33.33 0 0 1 .1.27h-.44a1 1 0 0 0-.63.18.65.65 0 0 0-.23.54.71.71 0 0 0 .2.54.87.87 0 0 0 .62.2.85.85 0 0 0 .6-.3l.1.24h.4V3.84a.77.77 0 0 0-.14-.44zm-.47 1.28a.71.71 0 0 1-.5.22.28.28 0 0 1-.21-.07.22.22 0 0 1-.11-.18.32.32 0 0 1 .33-.32h.46z"/><ellipse class="cls-2" cx="1.91" cy="5.22" rx=".6" ry="1.9" transform="rotate(-85.53 1.913 5.22)"/><ellipse class="cls-3" cx="2.21" cy="4.24" rx=".9" ry="2.1" transform="rotate(-54.84 2.205 4.238)"/><ellipse class="cls-4" cx="3.1" cy="2.81" rx="1.1" ry="2.8" transform="rotate(-9.78 3.116 2.798)"/><ellipse class="cls-5" cx="5.38" cy="2.9" rx="3.4" ry="1.3" transform="rotate(-50.11 5.385 2.895)"/></svg>