<svg id="Layer_1" xmlns="http://www.w3.org/2000/svg" viewBox="0 0 28.7 6.4"><style>.st0{enable-background:new}.st1{fill:#fff}.st2{opacity:.8;fill:#0068ff}.st2,.st3,.st4,.st5{enable-background:new}.st3{opacity:.9;fill:#00b7d8}.st4{opacity:.8;fill:#ff0328}.st5{opacity:.9;fill:#ff812c}</style><g class="st0"><path class="st1" d="M8.4 2.1H11l.1.5H10v2.7h-.6V2.6h-1v-.5z"/></g><g class="st0"><path class="st1" d="M11.8 3.6h-.3c-.1 0-.2.1-.3.1l-.2-.5c.1-.1.2-.1.4-.1.1-.1.3-.1.4-.1.2 0 .3 0 .5.1.1.1.3.2.4.3s.1.3.1.4v1.5h-.4l-.1-.2c-.2.2-.4.3-.6.3-.3 0-.5-.1-.6-.2-.1-.1-.2-.3-.2-.5s.1-.4.2-.5c.2-.1.4-.2.6-.2h.4c0-.1 0-.2-.1-.3 0-.1-.1-.1-.2-.1zm-.1.7c-.1 0-.2 0-.2.1-.1.1-.1.1-.1.2s0 .1.1.2c.1 0 .1.1.2.1.2 0 .3-.1.5-.2v-.4h-.5zm2.8-.8c-.1 0-.2 0-.3.1-.1 0-.2.1-.3.2v1.6h-.6V3.1h.4l.1.2c.1-.1.3-.2.4-.2.2-.1.3-.1.5-.1.3 0 .5.1.6.2.1.2.2.4.2.7v1.4h-.6V3.9c0-.1 0-.2-.1-.3s-.2-.1-.3-.1zM18 5.4c0 .3-.1.6-.3.7-.2.2-.5.3-.9.3-.1 0-.3 0-.5-.1-.2 0-.4-.1-.5-.2l.2-.4c.1.1.3.1.4.2.1 0 .2 0 .3.1.2 0 .3 0 .4-.1.1-.1.2-.2.2-.4v-.3c-.2.1-.3.1-.5.1-.4 0-.6-.1-.8-.3s-.3-.5-.3-.9c0-.2 0-.4.1-.6.1-.2.2-.3.4-.4.3-.1.5-.1.8-.1.1 0 .2 0 .3.1s.2.1.3.2l.1-.2h.3v2.3zm-.6-.7v-1c-.1-.1-.2-.1-.2-.1H17c-.2 0-.3.1-.4.2-.1.1-.1.3-.1.5s0 .4.1.5c.1.1.2.2.4.2h.2s.1-.3.2-.3zM19.6 3c.2 0 .4.1.6.2.2.1.3.2.3.4.1.2.1.4.1.6v.2h-1.5c0 .2.1.3.2.4.1.1.3.1.5.1.1 0 .2 0 .3-.1.1 0 .2-.1.3-.1l.2.4c-.1.1-.2.2-.4.2-.1 0-.3.1-.5.1-.4 0-.8-.1-1-.3-.2-.2-.3-.5-.3-.9 0-.2 0-.5.1-.6.1-.2.2-.3.4-.4.3-.2.5-.2.7-.2zm0 .5c-.1 0-.2 0-.3.1-.1.1-.1.2-.2.3h1c0-.2-.1-.3-.2-.3s-.2-.1-.3-.1zm2.6 0c-.1 0-.2 0-.3.1-.1 0-.2.1-.3.2v1.6H21V3.1h.4l.1.2c.1-.1.3-.2.4-.2.2-.1.4-.1.5-.1.3 0 .5.1.6.2.1.2.2.4.2.7v1.4h-.6V3.9c0-.1 0-.2-.1-.3s-.2-.1-.3-.1zm2.2-.4h.4l.2.4h-.6v1c0 .1 0 .2.1.3.1.1.1.1.2.1s.2 0 .2-.1l.2.4s-.1.1-.2.1h-.2c-.3 0-.5-.1-.7-.2-.2-.1-.2-.3-.2-.6v-1h-.3v-.4h.3v-.6l.6-.1v.7zm1.7-.7c0 .1 0 .2-.1.2-.1.1-.2.1-.2.1-.1 0-.2 0-.2-.1s-.1-.1-.1-.2 0-.2.1-.2.1-.1.2-.1.2 0 .2.1c.1 0 .1.1.1.2zm0 .7v2.3h-.6V3.1h.6zm1.3.5h-.3c-.1 0-.2.1-.3.1l-.2-.5c.1-.1.2-.1.4-.1s.3-.1.4-.1c.2 0 .3 0 .5.1.1.1.3.2.4.3s.1.3.1.4v1.5H28l-.1-.2c-.2.2-.4.3-.6.3-.3 0-.5-.1-.6-.2-.1-.1-.2-.3-.2-.5s.1-.4.2-.5c.2-.1.4-.2.6-.2h.4c0-.1 0-.2-.1-.3 0-.1 0-.1-.2-.1zm0 .7c-.1 0-.2 0-.2.1s-.2.2-.2.3c0 .1 0 .1.1.2.1 0 .1.1.2.1.2 0 .3-.1.5-.2v-.5h-.4z"/></g><ellipse transform="rotate(-85.53 1.915 5.22) scale(1.00004)" class="st2" cx="1.9" cy="5.2" rx=".6" ry="1.9"/><ellipse transform="rotate(-54.837 2.208 4.242)" class="st3" cx="2.2" cy="4.2" rx=".9" ry="2.1"/><ellipse transform="rotate(-9.782 3.099 2.806)" class="st4" cx="3.1" cy="2.8" rx="1.1" ry="2.8"/><ellipse transform="rotate(-50.111 5.385 2.895)" class="st5" cx="5.4" cy="2.9" rx="3.4" ry="1.3"/></svg>