<svg id="Layer_1" data-name="Layer 1" xmlns="http://www.w3.org/2000/svg" viewBox="0 0 181.05 48"><defs><style>.cls-1{fill:#fff}.cls-2{fill:#f98d08}.cls-3{fill:#0068ff}.cls-3,.cls-5{opacity:.8}.cls-4{fill:#00b7d8}.cls-4,.cls-6{opacity:.9}.cls-5{fill:#ff0328}.cls-6{fill:#ff812c}</style></defs><title>tangentia-logo-america</title><path class="cls-1" d="M50.01 12.75h15.32l.59 2.84h-6.49V31.7h-3.65V15.59h-5.77v-2.84zm20.17 8.42a8.62 8.62 0 0 0-2 .26 10.29 10.29 0 0 0-1.9.63l-1-3a7.45 7.45 0 0 1 2.31-.85 11.71 11.71 0 0 1 2.54-.38 6.85 6.85 0 0 1 3 .64 5.34 5.34 0 0 1 2.13 1.79 4.37 4.37 0 0 1 .8 2.56v8.88h-2.42L73 30.25A4.92 4.92 0 0 1 69.46 32a5 5 0 0 1-3.65-1.18 4.23 4.23 0 0 1-1.23-3.19A3.88 3.88 0 0 1 66 24.47a5.79 5.79 0 0 1 3.74-1.13h2.65a2.26 2.26 0 0 0-.6-1.6 2.14 2.14 0 0 0-1.61-.57zm-.53 4.59a1.91 1.91 0 0 0-1.43.56 1.87 1.87 0 0 0-.55 1.34 1.41 1.41 0 0 0 .49 1.06 1.81 1.81 0 0 0 1.24.44 4.15 4.15 0 0 0 3-1.34v-2.06zm16.55-5.01a3.8 3.8 0 0 0-1.78.43 14.22 14.22 0 0 0-1.84 1.16v9.36H79V18.18h2.37l.61 1.45a11 11 0 0 1 2.67-1.39 7.89 7.89 0 0 1 2.54-.5 4.08 4.08 0 0 1 3.59 1.45 6.84 6.84 0 0 1 1 4v8.51h-3.63v-8.31a3.27 3.27 0 0 0-.51-1.95 1.7 1.7 0 0 0-1.44-.69zm21.12 11.59a5.07 5.07 0 0 1-1.95 4.28 8.43 8.43 0 0 1-5.24 1.49 12.38 12.38 0 0 1-2.78-.44 8.18 8.18 0 0 1-2.73-1.1L95.7 34a12.54 12.54 0 0 0 2.3.9 8.64 8.64 0 0 0 2.06.31 4.25 4.25 0 0 0 2.63-.81 2.53 2.53 0 0 0 1-2.09v-1.14a5.6 5.6 0 0 1-3 .86 6.51 6.51 0 0 1-5-1.91 7.15 7.15 0 0 1-1.8-5.12 8.1 8.1 0 0 1 .83-3.73 5.88 5.88 0 0 1 2.38-2.51 7.37 7.37 0 0 1 3.7-.89 5 5 0 0 1 2 .45 7.09 7.09 0 0 1 1.85 1.14l.81-1.23h1.89zm-3.65-4.52v-5.76a5.07 5.07 0 0 0-1.39-.88 3.86 3.86 0 0 0-1.45-.27A2.81 2.81 0 0 0 98.49 22a4.66 4.66 0 0 0-.86 3 4.6 4.6 0 0 0 .85 2.89 2.8 2.8 0 0 0 2.35 1.1 3.66 3.66 0 0 0 1.41-.28 6.62 6.62 0 0 0 1.43-.89zm12.85-10a5.94 5.94 0 0 1 3.42.95 5.65 5.65 0 0 1 2.06 2.55 9.32 9.32 0 0 1 .66 3.58V26h-9.11a3.58 3.58 0 0 0 1.22 2.18 4.49 4.49 0 0 0 2.85.75 6.06 6.06 0 0 0 2-.31 11.44 11.44 0 0 0 1.92-.89l1.06 2.62a8 8 0 0 1-2.23 1.24 8.36 8.36 0 0 1-2.84.43 8.22 8.22 0 0 1-5.84-1.88 6.78 6.78 0 0 1-2-5.2 8.17 8.17 0 0 1 .82-3.76 5.89 5.89 0 0 1 2.35-2.49 7.15 7.15 0 0 1 3.66-.87zm-.09 3.09a2.64 2.64 0 0 0-1.86.69 3.3 3.3 0 0 0-1 2h5.66a3.81 3.81 0 0 0-1-2 2.59 2.59 0 0 0-1.8-.69zm15.72-.16a3.84 3.84 0 0 0-1.79.43 14.17 14.17 0 0 0-1.83 1.16v9.36h-3.63V18.18h2.37l.62 1.45a10.61 10.61 0 0 1 2.67-1.39 7.84 7.84 0 0 1 2.54-.5 4.11 4.11 0 0 1 3.59 1.45 6.84 6.84 0 0 1 1 4v8.51h-3.59v-8.31a3.2 3.2 0 0 0-.52-1.95 1.68 1.68 0 0 0-1.43-.69zm12.68-2.54h2.45l1.11 2.79h-3.56v5.74a2.8 2.8 0 0 0 .51 1.75 1.72 1.72 0 0 0 1.46.67 3.39 3.39 0 0 0 1.48-.36l1.06 2.62a3.68 3.68 0 0 1-1.24.58 5.08 5.08 0 0 1-1.49.26 5.69 5.69 0 0 1-4-1.29 4.6 4.6 0 0 1-1.42-3.59V21h-1.81v-2.79h1.81V15l3.6-.64zm10.31-3.98a2 2 0 0 1-.6 1.45 2 2 0 0 1-1.47.58 1.94 1.94 0 0 1-1.42-.58 2.1 2.1 0 0 1 0-2.9 2 2 0 0 1 1.42-.59 2 2 0 0 1 1.47.59 2 2 0 0 1 .6 1.45zm-.23 3.95V31.7h-3.62V18.18zm8.31 2.99a8.64 8.64 0 0 0-2 .26 10.43 10.43 0 0 0-1.89.63l-1-3a7.56 7.56 0 0 1 2.31-.85 11.79 11.79 0 0 1 2.54-.38 6.82 6.82 0 0 1 3 .64 5.27 5.27 0 0 1 2.13 1.79 4.37 4.37 0 0 1 .8 2.56v8.88h-2.37l-.61-1.45a5 5 0 0 1-3.64 1.75 5.07 5.07 0 0 1-3.65-1.18 4.23 4.23 0 0 1-1.23-3.19 3.86 3.86 0 0 1 1.4-3.19 5.76 5.76 0 0 1 3.73-1.13h2.65a2.26 2.26 0 0 0-.6-1.6 2.13 2.13 0 0 0-1.57-.54zm-.53 4.59a1.92 1.92 0 0 0-1.44.56 1.86 1.86 0 0 0-.54 1.34 1.38 1.38 0 0 0 .49 1.06 1.76 1.76 0 0 0 1.23.44 4.18 4.18 0 0 0 3-1.34v-2.06z"/><path class="cls-2" d="M113.76 45.66h-4.47l-.79 2.25h-2.35l4.11-11h2.54l4.09 11h-2.35zm-.6-1.69l-1.64-4.71-1.64 4.74zm17.74-7.09v11.03h-2.21v-7.7l-2.83 7.7h-1.92l-2.83-7.67v7.67h-2.23V36.88h2.7l3.35 8.29 3.29-8.29h2.68zm5.04 1.64v2.89h3.95v1.71h-3.95v3h4.43v1.79h-6.66V36.75h6.66v1.77h-4.43zm12.67 9.39L146 43.56h-1v4.35h-2.2V36.75h4.25a4.21 4.21 0 0 1 3 1 3.26 3.26 0 0 1 1 2.5 3.19 3.19 0 0 1-.71 2.11 3.42 3.42 0 0 1-2 1.14l2.78 4.46zM145 42h1.84c1.27 0 1.91-.56 1.91-1.69a1.67 1.67 0 0 0-.47-1.26 2 2 0 0 0-1.44-.45H145zm8.32-5.25h2.23V47.9h-2.23zm13.53.97a5 5 0 0 1 1.82 2.92h-2.34a3.06 3.06 0 0 0-1.13-1.42 3.16 3.16 0 0 0-1.84-.52 2.92 2.92 0 0 0-2.7 1.7 4.46 4.46 0 0 0-.39 1.93 4.4 4.4 0 0 0 .39 1.91 2.95 2.95 0 0 0 2.7 1.71 3.24 3.24 0 0 0 1.84-.52 3.09 3.09 0 0 0 1.13-1.43h2.34a5 5 0 0 1-1.82 2.93 5.47 5.47 0 0 1-3.46 1.07 5.42 5.42 0 0 1-2.81-.72 4.91 4.91 0 0 1-1.9-2 6.81 6.81 0 0 1 0-5.89 4.92 4.92 0 0 1 1.89-2 6 6 0 0 1 6.28.36zm11.08 7.94h-4.47l-.79 2.25h-2.36l4.11-11H177l4.09 11h-2.39zm-.6-1.69l-1.65-4.71L174 44z"/><ellipse class="cls-3" cx="11.08" cy="31.23" rx="3.46" ry="11.11" transform="rotate(-85.53 11.083 31.235)"/><ellipse class="cls-4" cx="13.35" cy="25.05" rx="5.54" ry="12.48" transform="rotate(-54.84 13.35 25.053)"/><ellipse class="cls-5" cx="18.63" cy="16.71" rx="6.26" ry="16.92" transform="rotate(-9.78 18.644 16.725)"/><ellipse class="cls-6" cx="32.04" cy="17.33" rx="19.99" ry="7.8" transform="rotate(-50.11 32.032 17.32)"/></svg>